<?xml version="1.0" encoding="utf-8"?><svg xmlns="http://www.w3.org/2000/svg" xmlns:xlink="http://www.w3.org/1999/xlink" width="2238" height="1145" preserveAspectRatio="xMidYMid" viewBox="0 0 2238 1145" style="z-index:1;margin-right:-2px;display:block;background-color:rgb(90, 63, 170);animation-play-state:paused" ><g transform="translate(1119,572.5) scale(1,1) translate(-1119,-572.5)" style="transform:matrix(1, 0, 0, 1, 0, 0);animation-play-state:paused" ><defs style="animation-play-state:paused" ><linearGradient id="lg-0.871508112033488" x1="0" x2="0" y1="0" y2="1" style="animation-play-state:paused" ><stop stop-color="#420457" offset="0.36" style="animation-play-state:paused" ></stop>

  
<stop stop-color="#5a3faa" offset="0.6799999999999999" style="animation-play-state:paused" ></stop>

  
<stop stop-color="#5a3faa" offset="1" style="animation-play-state:paused" ></stop></linearGradient>


<linearGradient id="fg-lg-0.871508112033488" x1="0" x2="0" y1="0" y2="1" style="animation-play-state:paused" ><stop stop-color="#420457" stop-opacity="1" offset="0.36" style="animation-play-state:paused" ></stop>

  
<stop stop-color="#5a3faa" stop-opacity="0.66" offset="0.6799999999999999" style="animation-play-state:paused" ></stop>

  
<stop stop-color="#5a3faa" stop-opacity="0" offset="1" style="animation-play-state:paused" ></stop></linearGradient>


<style type="text/css" style="animation-play-state:paused" >path { fill: none; stroke: #708adc; stroke-width: 1px }</style></defs>


<rect x="0" y="0" width="2238" height="1145" fill="url(#lg-0.871508112033488)" style="animation-play-state:paused" ></rect>
<path d="M0 412.2 L-6490.200000000001 1145" style="animation-play-state:paused" ></path>
<path d="M15.872340425531915 412.2 L-6382.268085106383 1145" style="animation-play-state:paused" ></path>
<path d="M31.74468085106383 412.2 L-6274.336170212767 1145" style="animation-play-state:paused" ></path>
<path d="M47.61702127659574 412.2 L-6166.404255319149 1145" style="animation-play-state:paused" ></path>
<path d="M63.48936170212766 412.2 L-6058.472340425533 1145" style="animation-play-state:paused" ></path>
<path d="M79.36170212765957 412.2 L-5950.540425531915 1145" style="animation-play-state:paused" ></path>
<path d="M95.23404255319149 412.2 L-5842.608510638299 1145" style="animation-play-state:paused" ></path>
<path d="M111.1063829787234 412.2 L-5734.676595744681 1145" style="animation-play-state:paused" ></path>
<path d="M126.97872340425532 412.2 L-5626.744680851065 1145" style="animation-play-state:paused" ></path>
<path d="M142.85106382978722 412.2 L-5518.8127659574475 1145" style="animation-play-state:paused" ></path>
<path d="M158.72340425531914 412.2 L-5410.88085106383 1145" style="animation-play-state:paused" ></path>
<path d="M174.59574468085106 412.2 L-5302.9489361702135 1145" style="animation-play-state:paused" ></path>
<path d="M190.46808510638297 412.2 L-5195.017021276596 1145" style="animation-play-state:paused" ></path>
<path d="M206.3404255319149 412.2 L-5087.08510638298 1145" style="animation-play-state:paused" ></path>
<path d="M222.2127659574468 412.2 L-4979.153191489362 1145" style="animation-play-state:paused" ></path>
<path d="M238.08510638297872 412.2 L-4871.221276595745 1145" style="animation-play-state:paused" ></path>
<path d="M253.95744680851064 412.2 L-4763.289361702128 1145" style="animation-play-state:paused" ></path>
<path d="M269.82978723404256 412.2 L-4655.357446808512 1145" style="animation-play-state:paused" ></path>
<path d="M285.70212765957444 412.2 L-4547.425531914894 1145" style="animation-play-state:paused" ></path>
<path d="M301.5744680851064 412.2 L-4439.493617021277 1145" style="animation-play-state:paused" ></path>
<path d="M317.4468085106383 412.2 L-4331.56170212766 1145" style="animation-play-state:paused" ></path>
<path d="M333.3191489361702 412.2 L-4223.629787234044 1145" style="animation-play-state:paused" ></path>
<path d="M349.1914893617021 412.2 L-4115.697872340426 1145" style="animation-play-state:paused" ></path>
<path d="M365.06382978723406 412.2 L-4007.7659574468094 1145" style="animation-play-state:paused" ></path>
<path d="M380.93617021276594 412.2 L-3899.834042553192 1145" style="animation-play-state:paused" ></path>
<path d="M396.8085106382979 412.2 L-3791.902127659575 1145" style="animation-play-state:paused" ></path>
<path d="M412.6808510638298 412.2 L-3683.970212765958 1145" style="animation-play-state:paused" ></path>
<path d="M428.5531914893617 412.2 L-3576.038297872341 1145" style="animation-play-state:paused" ></path>
<path d="M444.4255319148936 412.2 L-3468.1063829787236 1145" style="animation-play-state:paused" ></path>
<path d="M460.29787234042556 412.2 L-3360.174468085107 1145" style="animation-play-state:paused" ></path>
<path d="M476.17021276595744 412.2 L-3252.2425531914896 1145" style="animation-play-state:paused" ></path>
<path d="M492.0425531914894 412.2 L-3144.310638297873 1145" style="animation-play-state:paused" ></path>
<path d="M507.9148936170213 412.2 L-3036.3787234042557 1145" style="animation-play-state:paused" ></path>
<path d="M523.7872340425532 412.2 L-2928.4468085106387 1145" style="animation-play-state:paused" ></path>
<path d="M539.6595744680851 412.2 L-2820.5148936170217 1145" style="animation-play-state:paused" ></path>
<path d="M555.531914893617 412.2 L-2712.582978723405 1145" style="animation-play-state:paused" ></path>
<path d="M571.4042553191489 412.2 L-2604.6510638297877 1145" style="animation-play-state:paused" ></path>
<path d="M587.2765957446809 412.2 L-2496.7191489361708 1145" style="animation-play-state:paused" ></path>
<path d="M603.1489361702128 412.2 L-2388.787234042554 1145" style="animation-play-state:paused" ></path>
<path d="M619.0212765957447 412.2 L-2280.8553191489364 1145" style="animation-play-state:paused" ></path>
<path d="M634.8936170212766 412.2 L-2172.92340425532 1145" style="animation-play-state:paused" ></path>
<path d="M650.7659574468086 412.2 L-2064.9914893617024 1145" style="animation-play-state:paused" ></path>
<path d="M666.6382978723404 412.2 L-1957.0595744680859 1145" style="animation-play-state:paused" ></path>
<path d="M682.5106382978723 412.2 L-1849.1276595744685 1145" style="animation-play-state:paused" ></path>
<path d="M698.3829787234042 412.2 L-1741.195744680851 1145" style="animation-play-state:paused" ></path>
<path d="M714.2553191489362 412.2 L-1633.2638297872336 1145" style="animation-play-state:paused" ></path>
<path d="M730.1276595744681 412.2 L-1525.331914893618 1145" style="animation-play-state:paused" ></path>
<path d="M746 412.2 L-1417.4000000000005 1145" style="animation-play-state:paused" ></path>
<path d="M761.8723404255319 412.2 L-1309.4680851063831 1145" style="animation-play-state:paused" ></path>
<path d="M777.7446808510638 412.2 L-1201.5361702127657 1145" style="animation-play-state:paused" ></path>
<path d="M793.6170212765958 412.2 L-1093.6042553191492 1145" style="animation-play-state:paused" ></path>
<path d="M809.4893617021277 412.2 L-985.6723404255326 1145" style="animation-play-state:paused" ></path>
<path d="M825.3617021276596 412.2 L-877.7404255319152 1145" style="animation-play-state:paused" ></path>
<path d="M841.2340425531914 412.2 L-769.8085106382978 1145" style="animation-play-state:paused" ></path>
<path d="M857.1063829787234 412.2 L-661.8765957446813 1145" style="animation-play-state:paused" ></path>
<path d="M872.9787234042553 412.2 L-553.9446808510638 1145" style="animation-play-state:paused" ></path>
<path d="M888.8510638297872 412.2 L-446.0127659574464 1145" style="animation-play-state:paused" ></path>
<path d="M904.7234042553191 412.2 L-338.08085106382987 1145" style="animation-play-state:paused" ></path>
<path d="M920.5957446808511 412.2 L-230.14893617021335 1145" style="animation-play-state:paused" ></path>
<path d="M936.468085106383 412.2 L-122.21702127659591 1145" style="animation-play-state:paused" ></path>
<path d="M952.3404255319149 412.2 L-14.285106382978483 1145" style="animation-play-state:paused" ></path>
<path d="M968.2127659574468 412.2 L93.64680851063895 1145" style="animation-play-state:paused" ></path>
<path d="M984.0851063829788 412.2 L201.57872340425456 1145" style="animation-play-state:paused" ></path>
<path d="M999.9574468085107 412.2 L309.510638297872 1145" style="animation-play-state:paused" ></path>
<path d="M1015.8297872340426 412.2 L417.4425531914894 1145" style="animation-play-state:paused" ></path>
<path d="M1031.7021276595744 412.2 L525.3744680851069 1145" style="animation-play-state:paused" ></path>
<path d="M1047.5744680851064 412.2 L633.3063829787234 1145" style="animation-play-state:paused" ></path>
<path d="M1063.4468085106382 412.2 L741.2382978723399 1145" style="animation-play-state:paused" ></path>
<path d="M1079.3191489361702 412.2 L849.1702127659573 1145" style="animation-play-state:paused" ></path>
<path d="M1095.1914893617022 412.2 L957.1021276595748 1145" style="animation-play-state:paused" ></path>
<path d="M1111.063829787234 412.2 L1065.0340425531904 1145" style="animation-play-state:paused" ></path>
<path d="M1126.936170212766 412.2 L1172.9659574468087 1145" style="animation-play-state:paused" ></path>
<path d="M1142.8085106382978 412.2 L1280.8978723404252 1145" style="animation-play-state:paused" ></path>
<path d="M1158.6808510638298 412.2 L1388.8297872340436 1145" style="animation-play-state:paused" ></path>
<path d="M1174.5531914893618 412.2 L1496.7617021276592 1145" style="animation-play-state:paused" ></path>
<path d="M1190.4255319148936 412.2 L1604.6936170212757 1145" style="animation-play-state:paused" ></path>
<path d="M1206.2978723404256 412.2 L1712.6255319148931 1145" style="animation-play-state:paused" ></path>
<path d="M1222.1702127659576 412.2 L1820.5574468085106 1145" style="animation-play-state:paused" ></path>
<path d="M1238.0425531914893 412.2 L1928.489361702128 1145" style="animation-play-state:paused" ></path>
<path d="M1253.9148936170213 412.2 L2036.4212765957454 1145" style="animation-play-state:paused" ></path>
<path d="M1269.787234042553 412.2 L2144.353191489361 1145" style="animation-play-state:paused" ></path>
<path d="M1285.659574468085 412.2 L2252.2851063829785 1145" style="animation-play-state:paused" ></path>
<path d="M1301.531914893617 412.2 L2360.217021276596 1145" style="animation-play-state:paused" ></path>
<path d="M1317.404255319149 412.2 L2468.1489361702133 1145" style="animation-play-state:paused" ></path>
<path d="M1333.276595744681 412.2 L2576.080851063829 1145" style="animation-play-state:paused" ></path>
<path d="M1349.1489361702127 412.2 L2684.012765957448 1145" style="animation-play-state:paused" ></path>
<path d="M1365.0212765957447 412.2 L2791.944680851064 1145" style="animation-play-state:paused" ></path>
<path d="M1380.8936170212767 412.2 L2899.8765957446813 1145" style="animation-play-state:paused" ></path>
<path d="M1396.7659574468084 412.2 L3007.8085106382987 1145" style="animation-play-state:paused" ></path>
<path d="M1412.6382978723404 412.2 L3115.7404255319143 1145" style="animation-play-state:paused" ></path>
<path d="M1428.5106382978724 412.2 L3223.6723404255335 1145" style="animation-play-state:paused" ></path>
<path d="M1444.3829787234042 412.2 L3331.604255319149 1145" style="animation-play-state:paused" ></path>
<path d="M1460.2553191489362 412.2 L3439.536170212765 1145" style="animation-play-state:paused" ></path>
<path d="M1476.127659574468 412.2 L3547.468085106384 1145" style="animation-play-state:paused" ></path>
<path d="M1492 412.2 L3655.3999999999996 1145" style="animation-play-state:paused" ></path>
<path d="M1507.872340425532 412.2 L3763.331914893617 1145" style="animation-play-state:paused" ></path>
<path d="M1523.7446808510638 412.2 L3871.2638297872345 1145" style="animation-play-state:paused" ></path>
<path d="M1539.6170212765958 412.2 L3979.19574468085 1145" style="animation-play-state:paused" ></path>
<path d="M1555.4893617021276 412.2 L4087.1276595744694 1145" style="animation-play-state:paused" ></path>
<path d="M1571.3617021276596 412.2 L4195.059574468085 1145" style="animation-play-state:paused" ></path>
<path d="M1587.2340425531916 412.2 L4302.991489361702 1145" style="animation-play-state:paused" ></path>
<path d="M1603.1063829787233 412.2 L4410.92340425532 1145" style="animation-play-state:paused" ></path>
<path d="M1618.9787234042553 412.2 L4518.855319148935 1145" style="animation-play-state:paused" ></path>
<path d="M1634.8510638297873 412.2 L4626.787234042553 1145" style="animation-play-state:paused" ></path>
<path d="M1650.723404255319 412.2 L4734.71914893617 1145" style="animation-play-state:paused" ></path>
<path d="M1666.595744680851 412.2 L4842.651063829788 1145" style="animation-play-state:paused" ></path>
<path d="M1682.468085106383 412.2 L4950.582978723405 1145" style="animation-play-state:paused" ></path>
<path d="M1698.340425531915 412.2 L5058.514893617021 1145" style="animation-play-state:paused" ></path>
<path d="M1714.212765957447 412.2 L5166.446808510638 1145" style="animation-play-state:paused" ></path>
<path d="M1730.0851063829787 412.2 L5274.378723404256 1145" style="animation-play-state:paused" ></path>
<path d="M1745.9574468085107 412.2 L5382.310638297873 1145" style="animation-play-state:paused" ></path>
<path d="M1761.8297872340424 412.2 L5490.2425531914905 1145" style="animation-play-state:paused" ></path>
<path d="M1777.7021276595744 412.2 L5598.174468085108 1145" style="animation-play-state:paused" ></path>
<path d="M1793.5744680851064 412.2 L5706.106382978724 1145" style="animation-play-state:paused" ></path>
<path d="M1809.4468085106382 412.2 L5814.038297872341 1145" style="animation-play-state:paused" ></path>
<path d="M1825.3191489361702 412.2 L5921.970212765958 1145" style="animation-play-state:paused" ></path>
<path d="M1841.1914893617022 412.2 L6029.902127659574 1145" style="animation-play-state:paused" ></path>
<path d="M1857.063829787234 412.2 L6137.834042553193 1145" style="animation-play-state:paused" ></path>
<path d="M1872.936170212766 412.2 L6245.765957446809 1145" style="animation-play-state:paused" ></path>
<path d="M1888.8085106382978 412.2 L6353.697872340426 1145" style="animation-play-state:paused" ></path>
<path d="M1904.6808510638298 412.2 L6461.629787234044 1145" style="animation-play-state:paused" ></path>
<path d="M1920.5531914893618 412.2 L6569.561702127659 1145" style="animation-play-state:paused" ></path>
<path d="M1936.4255319148936 412.2 L6677.493617021279 1145" style="animation-play-state:paused" ></path>
<path d="M1952.2978723404256 412.2 L6785.425531914894 1145" style="animation-play-state:paused" ></path>
<path d="M1968.1702127659576 412.2 L6893.35744680851 1145" style="animation-play-state:paused" ></path>
<path d="M1984.0425531914893 412.2 L7001.289361702129 1145" style="animation-play-state:paused" ></path>
<path d="M1999.9148936170213 412.2 L7109.221276595745 1145" style="animation-play-state:paused" ></path>
<path d="M2015.787234042553 412.2 L7217.153191489362 1145" style="animation-play-state:paused" ></path>
<path d="M2031.659574468085 412.2 L7325.08510638298 1145" style="animation-play-state:paused" ></path>
<path d="M2047.531914893617 412.2 L7433.017021276595 1145" style="animation-play-state:paused" ></path>
<path d="M2063.404255319149 412.2 L7540.948936170214 1145" style="animation-play-state:paused" ></path>
<path d="M2079.276595744681 412.2 L7648.88085106383 1145" style="animation-play-state:paused" ></path>
<path d="M2095.148936170213 412.2 L7756.8127659574475 1145" style="animation-play-state:paused" ></path>
<path d="M2111.021276595745 412.2 L7864.744680851065 1145" style="animation-play-state:paused" ></path>
<path d="M2126.8936170212764 412.2 L7972.6765957446805 1145" style="animation-play-state:paused" ></path>
<path d="M2142.7659574468084 412.2 L8080.608510638298 1145" style="animation-play-state:paused" ></path>
<path d="M2158.6382978723404 412.2 L8188.540425531915 1145" style="animation-play-state:paused" ></path>
<path d="M2174.5106382978724 412.2 L8296.472340425533 1145" style="animation-play-state:paused" ></path>
<path d="M2190.3829787234044 412.2 L8404.40425531915 1145" style="animation-play-state:paused" ></path>
<path d="M2206.255319148936 412.2 L8512.336170212766 1145" style="animation-play-state:paused" ></path>
<path d="M2222.127659574468 412.2 L8620.268085106381 1145" style="animation-play-state:paused" ></path>
<path d="M2238 412.2 L8728.200000000003 1145" style="animation-play-state:paused" ></path>
<g transform="matrix(1,0,0,1,0,0)" style="transform:matrix(1, 0, 0, 1, 0, 0);animation-play-state:paused" ><path d="M0 412.2 L2238 412.2" style="animation-play-state:paused" ></path></g>
<g transform="matrix(1,0,0,1,0,0)" style="transform:matrix(1, 0, 0, 1, 0, 0);animation-play-state:paused" ><path d="M0 416.91799205271366 L2238 416.91799205271366" style="animation-play-state:paused" ></path></g>
<g transform="matrix(1,0,0,1,0,0)" style="transform:matrix(1, 0, 0, 1, 0, 0);animation-play-state:paused" ><path d="M0 426.35397615814094 L2238 426.35397615814094" style="animation-play-state:paused" ></path></g>
<g transform="matrix(1,0,0,1,0,0)" style="transform:matrix(1, 0, 0, 1, 0, 0);animation-play-state:paused" ><path d="M0 440.5079523162819 L2238 440.5079523162819" style="animation-play-state:paused" ></path></g>
<g transform="matrix(1,0,0,1,0,0)" style="transform:matrix(1, 0, 0, 1, 0, 0);animation-play-state:paused" ><path d="M0 459.37992052713645 L2238 459.37992052713645" style="animation-play-state:paused" ></path></g>
<g transform="matrix(1,0,0,1,0,0)" style="transform:matrix(1, 0, 0, 1, 0, 0);animation-play-state:paused" ><path d="M0 482.9698807907047 L2238 482.9698807907047" style="animation-play-state:paused" ></path></g>
<g transform="matrix(1,0,0,1,0,0)" style="transform:matrix(1, 0, 0, 1, 0, 0);animation-play-state:paused" ><path d="M0 511.2778331069866 L2238 511.2778331069866" style="animation-play-state:paused" ></path></g>
<g transform="matrix(1,0,0,1,0,0)" style="transform:matrix(1, 0, 0, 1, 0, 0);animation-play-state:paused" ><path d="M0 544.3037774759821 L2238 544.3037774759821" style="animation-play-state:paused" ></path></g>
<g transform="matrix(1,0,0,1,0,0)" style="transform:matrix(1, 0, 0, 1, 0, 0);animation-play-state:paused" ><path d="M0 582.0477138976912 L2238 582.0477138976912" style="animation-play-state:paused" ></path></g>
<g transform="matrix(1,0,0,1,0,0)" style="transform:matrix(1, 0, 0, 1, 0, 0);animation-play-state:paused" ><path d="M0 624.5096423721141 L2238 624.5096423721141" style="animation-play-state:paused" ></path></g>
<g transform="matrix(1,0,0,1,0,0)" style="transform:matrix(1, 0, 0, 1, 0, 0);animation-play-state:paused" ><path d="M0 671.6895628992505 L2238 671.6895628992505" style="animation-play-state:paused" ></path></g>
<g transform="matrix(1,0,0,1,0,0)" style="transform:matrix(1, 0, 0, 1, 0, 0);animation-play-state:paused" ><path d="M0 723.5874754791006 L2238 723.5874754791006" style="animation-play-state:paused" ></path></g>
<g transform="matrix(1,0,0,1,0,0)" style="transform:matrix(1, 0, 0, 1, 0, 0);animation-play-state:paused" ><path d="M0 780.2033801116644 L2238 780.2033801116644" style="animation-play-state:paused" ></path></g>
<g transform="matrix(1,0,0,1,0,0)" style="transform:matrix(1, 0, 0, 1, 0, 0);animation-play-state:paused" ><path d="M0 841.5372767969418 L2238 841.5372767969418" style="animation-play-state:paused" ></path></g>
<g transform="matrix(1,0,0,1,0,0)" style="transform:matrix(1, 0, 0, 1, 0, 0);animation-play-state:paused" ><path d="M0 907.5891655349328 L2238 907.5891655349328" style="animation-play-state:paused" ></path></g>
<g transform="matrix(1,0,0,1,0,0)" style="transform:matrix(1, 0, 0, 1, 0, 0);animation-play-state:paused" ><path d="M0 978.3590463256376 L2238 978.3590463256376" style="animation-play-state:paused" ></path></g>
<g transform="matrix(1,0,0,1,0,0)" style="transform:matrix(1, 0, 0, 1, 0, 0);animation-play-state:paused" ><path d="M0 1053.8469191690558 L2238 1053.8469191690558" style="animation-play-state:paused" ></path></g>
<g transform="matrix(1,0,0,1,0,0)" style="transform:matrix(1, 0, 0, 1, 0, 0);animation-play-state:paused" ><path d="M0 1134.0527840651878 L2238 1134.0527840651878" style="animation-play-state:paused" ></path></g>
<rect x="0" y="0" width="2238" height="1145" fill="url(#fg-lg-0.871508112033488)" style="animation-play-state:paused" ></rect></g></svg>